<svg id="Layer_1" enable-background="new 0 0 50 50" height="512" viewBox="0 0 50 50" width="512" xmlns="http://www.w3.org/2000/svg"><g><g><g><g><g enable-background="new"><g><path d="m49 32.34555-.0152 4.5598-14.2916 8.3053.0152-4.5597z" fill="#5eaf5f"/></g><g><path d="m34.7084 40.65095-.0152 4.5597-33.6932-19.4527.0153-4.5597z" fill="#7bc578"/></g><g><path d="m49 32.34555-14.2916 8.3054-33.6931-19.4527 14.2916-8.3054z" fill="#98d095"/></g></g></g><g><path d="m36.7837 31.52105-.3891.2261c.3441.3097.3463.6854-.037.9082l-.5002-.2888c.1738-.101.0883-.3306-.1829-.4872-.2772-.16-.6738-.2088-.8476-.1078-.1735.1008-.0883.3306.1889.4907.5604.3235.6415.8.1864 1.0645-.3833.2228-1.0319.2227-1.5618.021l-.3892.2261-.5001-.2887.3891-.2262c-.3499-.3063-.3522-.682.0311-.9047l.5002.2888c-.1738.101-.0825.3271.1947.4872.2712.1566.662.2087.8358.1077.1796-.1044.088-.3304-.1832-.4869-.5604-.3236-.6472-.8038-.1921-1.0683.3833-.2227 1.0319-.2226 1.5677-.0243l.3891-.2262z" fill="#46a046"/></g><g><path d="m17.2645 20.25165-.3892.2261c.3441.3097.3524.6889-.0309.9116l-.5062-.2923c.1737-.1009.0943-.3271-.1829-.4871-.2772-.1601-.6739-.2088-.8476-.1078-.1735.1008-.0884.3306.1889.4906.5604.3236.6475.8036.1924 1.068-.3833.2228-1.038.2193-1.5679.0176l-.3891.2261-.5002-.2888.3892-.2261c-.35-.3063-.3522-.682.0311-.9048l.5002.2888c-.1738.101-.0825.3272.1947.4873.2772.16.662.2087.8358.1077.1796-.1044.094-.3269-.1832-.487-.5605-.3236-.6472-.8037-.1921-1.0682.3833-.2227 1.0319-.2227 1.5676-.0244l.3892-.2261z" fill="#46a046"/></g><g><path d="m16.6976 15.60325c.7654.4419.7694 1.1516.009 1.5936-.7542.4383-1.9858.4418-2.7511 0-.7593-.4384-.7632-1.1552-.009-1.5936.7604-.4419 1.9918-.4384 2.7511 0z" fill="#46a046"/></g><g><path d="m29.9871 24.59375-.9637.5601c.857.7586.8624 1.684-.0897 2.2373l-1.2354-.7133c.431-.2505.2176-.8106-.4634-1.2038-.6749-.3897-1.6487-.5149-2.0797-.2645-.431.2505-.2116.8141.4634 1.2038 1.386.8003 1.5968 1.9763.4713 2.6304-.9459.5497-2.5497.5532-3.856.0557l-.9699.5636-1.2354-.7132.9699-.5637c-.8632-.755-.8684-1.6875.0775-2.2372l1.2354.7133c-.4311.2505-.2116.8141.4634 1.2038.6809.3931 1.6486.515 2.0797.2645.431-.2505.2176-.8107-.4634-1.2038-1.38-.7968-1.591-1.9797-.4713-2.6304.9521-.5533 2.5557-.5497 3.8682-.0558l.9637-.5601z" fill="#46a046"/></g><g><path d="m8.4413 20.40135c.7653.4419.7693 1.1516.0092 1.5933-.7545.4385-1.9799.4385-2.7452-.0033-.7593-.4384-.7694-1.1517-.0148-1.5902.7601-.4417 1.9915-.4382 2.7508.0002z" fill="#46a046"/></g><g><path d="m44.3102 31.54535c.7654.4419.7694 1.1517.009 1.5936-.7543.4383-1.9858.4419-2.7511 0-.7593-.4384-.7572-1.1517-.003-1.5901.7605-.4419 1.9858-.4419 2.7451-.0035z" fill="#46a046"/></g><g><path d="m36.0539 36.34345c.7653.4419.7693 1.1517.0092 1.5934-.7545.4385-1.9799.4385-2.7452-.0034-.7593-.4384-.7634-1.1482-.0088-1.5867.7601-.4417 1.9854-.4417 2.7448-.0033z" fill="#46a046"/></g><g><path d="m15.3202 14.19765 31.4272 18.1445-12.0461 7.0004-12.9445-7.4735-18.4827-10.671zm3.7006 16.05c3.3265 1.9205 8.7145 1.917 12.0134-.0001s3.2874-5.0381-.0391-6.9586c-3.3206-1.9171-8.7146-1.9171-12.0135 0s-3.2814 5.0416.0392 6.9587m-10.1546-8.0198 6.8157 3.9072c.2215-1.1759 1.1042-2.3172 2.6549-3.2184s3.5119-1.4125 5.5475-1.5483l-6.7916-3.9212c1.0056-.5844 1.0006-1.51.0123-2.0806-.9823-.5671-2.5863-.5705-3.5683.0001-.9819.5707-.9647 1.4962.0176 2.0633l-4.6756 2.7521c-1.0124-.5846-2.6164-.5879-3.5922-.0209-.9877.5741-.9705 1.4996.0118 2.0667.9883.5706 2.5801.5741 3.5679 0m27.595 13.8789 4.6816-2.7486c1.0124.5845 2.6042.588 3.5861.0174.982-.5707.977-1.4963-.0114-2.0669-.9822-.5671-2.5802-.567-3.5622.0037l-6.8153-3.9074c-.2338 1.1761-1.1103 2.3137-2.661 3.2149s-3.518 1.4161-5.5415 1.5518l6.7917 3.9212c-1.0118.588-1.0006 1.51-.0183 2.0771.9883.5706 2.5801.5741 3.5679.0001.9757-.5671.9707-1.4927-.0176-2.0633m-16.7862-18.7221-.892.5184 3.6399 2.1015.8919-.5184zm17.9162 10.344-.892.5183 3.6339 2.098.892-.5183zm-25.1609-1.9171.8861-.515-3.6398-2.1014-.8862.5149zm17.9102 10.3405.8862-.515-3.6339-2.098-.8861.515z" fill="#46a046"/></g></g><g><g enable-background="new"><g><path d="m35.7416 24.69085-14.2916 8.3053-.658-.3799 14.2916-8.3054z" fill="#86aedc"/></g><g><path d="m39.5801 26.90695-14.2916 8.3054-3.8385-2.2162 14.2916-8.3053z" fill="#e3e6f0"/></g><g><path d="m40.2342 27.28455-14.2916 8.3054-.6541-.3776 14.2916-8.3054z" fill="#86aedc"/></g></g></g><g><g enable-background="new"><g><path d="m21.4496 32.99595-.0299 4.5611-.6577-.3797.03-4.5611z" fill="#678cc8"/></g><g><path d="m25.285 35.21035-.03 4.561-3.8353-2.2143.0299-4.5611z" fill="#d4dbe9"/></g><g><path d="m25.9426 35.58995-.0299 4.5611-.6577-.3797.03-4.561z" fill="#678cc8"/></g></g></g></g><g><g><g><g enable-background="new"><g><path d="m49 24.24205-.0152 4.5597-14.2916 8.3054.0152-4.5597z" fill="#5eaf5f"/></g><g><path d="m34.7084 32.54745-.0152 4.5597-33.6932-19.4527.0153-4.5598z" fill="#7bc578"/></g><g><path d="m49 24.24205-14.2916 8.3054-33.6931-19.4528 14.2916-8.3053z" fill="#98d095"/></g></g></g><g><path d="m36.7837 23.41755-.3891.2261c.3441.3097.3463.6854-.037.9081l-.5002-.2887c.1738-.101.0883-.3306-.1829-.4872-.2772-.16-.6738-.2088-.8476-.1078-.1735.1008-.0883.3306.1889.4906.5604.3236.6415.8001.1864 1.0646-.3833.2227-1.0319.2227-1.5618.021l-.3892.2261-.5001-.2888.3891-.2261c-.3499-.3063-.3522-.682.0311-.9047l.5002.2887c-.1738.101-.0825.3272.1947.4873.2712.1565.662.2087.8358.1077.1796-.1044.088-.3304-.1832-.487-.5604-.3235-.6472-.8037-.1921-1.0682.3833-.2227 1.0319-.2227 1.5677-.0244l.3891-.2261z" fill="#46a046"/></g><g><path d="m17.2645 12.14805-.3892.2262c.3441.3096.3524.6888-.0309.9116l-.5062-.2923c.1737-.101.0943-.3271-.1829-.4871-.2772-.1601-.6739-.2088-.8476-.1078-.1735.1008-.0884.3305.1889.4906.5604.3236.6475.8036.1924 1.068-.3833.2228-1.038.2192-1.5679.0175l-.3891.2262-.5002-.2888.3892-.2262c-.35-.3062-.3522-.6819.0311-.9047l.5002.2888c-.1738.101-.0825.3272.1947.4872.2772.1601.662.2088.8358.1078.1796-.1044.094-.327-.1832-.487-.5605-.3236-.6472-.8038-.1921-1.0682.3833-.2228 1.0319-.2227 1.5676-.0244l.3892-.2261z" fill="#46a046"/></g><g><path d="m16.6976 7.49975c.7654.4419.7694 1.1516.009 1.5935-.7542.4383-1.9858.4419-2.7511.0001-.7593-.4384-.7632-1.1553-.009-1.5936.7604-.4419 1.9918-.4384 2.7511 0z" fill="#46a046"/></g><g><path d="m29.9871 16.49025-.9637.5601c.857.7585.8624 1.684-.0897 2.2372l-1.2354-.7132c.431-.2505.2176-.8106-.4634-1.2038-.6749-.3897-1.6487-.515-2.0797-.2645s-.2116.8141.4634 1.2038c1.386.8002 1.5968 1.9763.4713 2.6304-.9459.5497-2.5497.5532-3.856.0557l-.9699.5636-1.2354-.7132.9699-.5637c-.8632-.755-.8684-1.6875.0775-2.2372l1.2354.7133c-.4311.2505-.2116.8141.4634 1.2038.6809.3931 1.6486.5149 2.0797.2644.431-.2505.2176-.8106-.4634-1.2037-1.38-.7968-1.591-1.9798-.4713-2.6304.9521-.5533 2.5557-.5498 3.8682-.0558l.9637-.5601z" fill="#46a046"/></g><g><path d="m8.4413 12.29785c.7653.4418.7693 1.1516.0092 1.5933-.7545.4385-1.9799.4385-2.7452-.0034-.7593-.4383-.7694-1.1516-.0148-1.5901.7601-.4417 1.9915-.4382 2.7508.0002z" fill="#46a046"/></g><g><path d="m44.3102 23.44185c.7654.4419.7694 1.1517.009 1.5936-.7543.4383-1.9858.4419-2.7511 0-.7593-.4384-.7572-1.1518-.003-1.5901.7605-.4419 1.9858-.4419 2.7451-.0035z" fill="#46a046"/></g><g><path d="m36.0539 28.23995c.7653.4419.7693 1.1516.0092 1.5933-.7545.4386-1.9799.4385-2.7452-.0033-.7593-.4384-.7634-1.1482-.0088-1.5867.7601-.4417 1.9854-.4417 2.7448-.0033z" fill="#46a046"/></g><g><path d="m15.3202 6.09405 31.4272 18.1446-12.0461 7.0004-12.9445-7.4735-18.4827-10.671zm3.7006 16.05c3.3265 1.9206 8.7145 1.9171 12.0134 0s3.2874-5.0381-.0391-6.9587c-3.3206-1.9171-8.7146-1.917-12.0135.0001s-3.2814 5.0415.0392 6.9586m-10.1546-8.0197 6.8157 3.9072c.2215-1.176 1.1042-2.3172 2.6549-3.2184s3.5119-1.4126 5.5475-1.5483l-6.7916-3.9212c1.0056-.5844 1.0006-1.51.0123-2.0806-.9823-.5672-2.5863-.5705-3.5683.0001-.9819.5707-.9647 1.4962.0176 2.0633l-4.6756 2.752c-1.0124-.5845-2.6164-.5878-3.5922-.0208-.9877.574-.9705 1.4995.0118 2.0667.9883.5706 2.5801.574 3.5679 0m27.595 13.8789 4.6816-2.7486c1.0124.5845 2.6042.588 3.5861.0174.982-.5707.977-1.4963-.0114-2.0669-.9822-.5671-2.5802-.567-3.5622.0036l-6.8153-3.9074c-.2338 1.1761-1.1103 2.3138-2.661 3.215-1.5507.9011-3.518 1.4161-5.5415 1.5518l6.7917 3.9211c-1.0118.5881-1.0006 1.5101-.0183 2.0772.9883.5706 2.5801.5741 3.5679 0 .9757-.567.9707-1.4926-.0176-2.0632m-16.7862-18.7221-.892.5184 3.6399 2.1014.8919-.5183zm17.9162 10.3439-.892.5184 3.6339 2.098.892-.5183zm-25.1609-1.917.8861-.515-3.6398-2.1015-.8862.515zm17.9102 10.3405.8862-.515-3.6339-2.098-.8861.5149z" fill="#46a046"/></g></g><g><g enable-background="new"><g><path d="m35.7416 16.58735-14.2916 8.3053-.658-.3799 14.2916-8.3054z" fill="#86aedc"/></g><g><path d="m39.5801 18.80345-14.2916 8.3054-3.8385-2.2162 14.2916-8.3053z" fill="#e3e6f0"/></g><g><path d="m40.2342 19.18105-14.2916 8.3054-.6541-.3776 14.2916-8.3054z" fill="#86aedc"/></g></g></g><g><g enable-background="new"><g><path d="m21.4496 24.89245-.0299 4.5611-.6577-.3797.03-4.5611z" fill="#678cc8"/></g><g><path d="m25.285 27.10675-.03 4.5611-3.8353-2.2143.0299-4.5611z" fill="#d4dbe9"/></g><g><path d="m25.9426 27.48645-.0299 4.5611-.6577-.3797.03-4.5611z" fill="#678cc8"/></g></g></g></g></g></svg>