<?xml version="1.0" encoding="utf-8"?>
<!-- Generator: Adobe Illustrator 24.1.0, SVG Export Plug-In . SVG Version: 6.00 Build 0)  -->
<svg version="1.1" id="Layer_1" xmlns="http://www.w3.org/2000/svg" xmlns:xlink="http://www.w3.org/1999/xlink" x="0px" y="0px"
	 viewBox="0 0 505 626" style="enable-background:new 0 0 505 626;" xml:space="preserve">
<style type="text/css">
	.st0{fill:#FFFFFF;}
	.st1{fill:#EFECF5;}
	.st2{fill:#1C1B21;}
	.st3{fill:#81787D;}
	.st4{fill:#473D43;}
	.st5{fill:#65499C;}
	.st6{fill:#CACAC9;}
	.st7{fill:#949494;}
	.st8{fill:url(#Shape_23_);}
	.st9{fill:url(#Shape_24_);}
	.st10{fill:url(#Shape_25_);}
	.st11{fill:none;stroke:#81787D;stroke-width:0.88;}
	.st12{fill:#847F82;}
	.st13{fill:#DDDDDC;}
	.st14{fill:#673AB7;}
	.st15{fill:#00B8A9;}
	.st16{fill:#FFBE00;}
	.st17{fill:#D77F00;}
	.st18{fill:#F2A700;}
	.st19{fill:#FFDD30;}
	.st20{opacity:0.94;fill:#F2A700;enable-background:new    ;}
	.st21{fill:none;stroke:#673AB7;stroke-width:2.27;}
	.st22{fill:#02C9B5;}
	.st23{fill:#02C9B5;stroke:#673AB7;stroke-width:2.38;stroke-linecap:round;stroke-linejoin:round;}
	.st24{fill:none;stroke:#673AB7;stroke-width:2.59;stroke-linecap:round;stroke-linejoin:round;}
	.st25{fill:#5F259F;}
</style>
<desc>Created with Sketch.</desc>
<circle id="Oval" class="st0" cx="249.5" cy="261.5" r="221.2"/>
<path id="Shape" class="st1" d="M249.5,42.3c112.2,0.1,206.1,85.3,217.2,197s-64.2,213.6-174.2,235.8
	c-110,22.2-219-42.5-252.1-149.7S60.7,103.2,164.1,59.5C191.1,48.1,220.1,42.2,249.5,42.3z M249.5,40.3
	c-122.2,0-221.2,99-221.2,221.2s99,221.2,221.2,221.2s221.2-99,221.2-221.2S371.7,40.3,249.5,40.3z"/>
<path id="Shape_1_" class="st2" d="M178.4,579c-15.7,0-28.5-12.8-28.5-28.5l-0.2-374c0-15.7,12.8-28.5,28.5-28.5h150.1
	c15.7,0,28.5,12.8,28.5,28.5l0.2,374c0,15.7-12.8,28.5-28.5,28.5H178.4z"/>
<path id="Shape_2_" class="st3" d="M196.5,164.4c0,2.3-1.9,4.2-4.2,4.2s-4.3-1.8-4.3-4.2s1.9-4.2,4.2-4.2S196.5,162.1,196.5,164.4z"
	/>
<path id="Shape_3_" class="st4" d="M192.2,161c2.2,0,4,1.6,4.2,3.8c0-0.1,0-0.3,0.1-0.4c0-2.3-1.9-4.2-4.2-4.2s-4.3,1.9-4.3,4.2
	c0,0.1,0,0.3,0.1,0.4C188.3,162.7,190.1,161.1,192.2,161z"/>
<path id="Shape_4_" class="st3" d="M274.8,165c0,1.3-1,2.3-2.3,2.3h-38.2c-1.3,0-2.3-1.1-2.3-2.3c0-1.3,1-2.3,2.3-2.3h38.2
	C273.8,162.7,274.8,163.7,274.8,165z"/>
<path id="Shape_5_" class="st4" d="M234.3,163.5h38.2c1.1,0,2.1,0.8,2.3,1.9c0-0.2,0-0.3,0-0.5c0-1.3-1-2.3-2.3-2.3h-38.1
	c-0.6,0-1.2,0.2-1.7,0.7c-0.4,0.4-0.7,1-0.7,1.7c0,0.2,0,0.3,0,0.5C232.2,164.3,233.2,163.5,234.3,163.5z"/>
<path id="Shape_6_" class="st5" d="M329,147.1H177.8c-8.2,0-16,3.2-21.8,9s-9,13.6-9,21.8v373.9c0,8.2,3.2,16,9,21.8s13.6,9,21.8,9
	H329c8.2,0,16-3.2,21.8-9s9-13.6,9-21.8V177.9c0-8.2-3.2-16-9-21.8C345,150.3,337.2,147.1,329,147.1z M355.8,550.4
	c0,15.1-12.2,27.3-27.3,27.3H178.4c-15.1,0-27.3-12.2-27.3-27.3l-0.1-374c0-15.1,12.2-27.3,27.3-27.3h150.1
	c15.1,0,27.3,12.2,27.3,27.3L355.8,550.4z"/>
<path id="Shape_7_" class="st4" d="M329,147.1H177.8c-8.2,0-16,3.2-21.8,9s-9,13.6-9,21.8v373.9c0,8.2,3.2,16,9,21.8s13.6,9,21.8,9
	H329c8.2,0,16-3.2,21.8-9s9-13.6,9-21.8V177.9c0-8.2-3.2-16-9-21.8C345,150.3,337.2,147.1,329,147.1z M355.8,550.4
	c0,15.1-12.2,27.3-27.3,27.3H178.4c-15.1,0-27.3-12.2-27.3-27.3l-0.1-374c0-15.1,12.2-27.3,27.3-27.3h150.1
	c15.1,0,27.3,12.2,27.3,27.3L355.8,550.4z"/>
<rect id="Rectangle-path" x="302.5" y="147.1" class="st6" width="4.7" height="2"/>
<rect id="Rectangle-path_1_" x="148.9" y="181.9" class="st7" width="2" height="5"/>
<polygon id="Shape_8_" class="st7" points="147,187.7 148.9,186.9 148.9,181.9 147,182.7 "/>
<rect id="Rectangle-path_2_" x="355.9" y="181.9" class="st7" width="2" height="5"/>
<polygon id="Shape_9_" class="st7" points="359.8,187.7 357.9,186.9 357.9,181.9 359.8,182.7 "/>
<path id="Shape_10_" class="st7" d="M359.7,554.1h-4.1c-0.3,1.9-0.7,3.9-1.4,5.7h4.6C359.3,557.9,359.6,556,359.7,554.1z"/>
<path id="Shape_11_" class="st7" d="M148,559.8h4.8c-0.7-1.8-1.1-3.8-1.4-5.7H147C147.2,556,147.5,557.9,148,559.8z"/>
<rect id="Rectangle-path_3_" x="156.7" y="189.6" class="st0" width="193.5" height="343.3"/>
<path id="Shape_12_" class="st3" d="M177.2,579.2c-15.1,0-27.3-12.3-27.2-27.4l-0.2-375.3c0-15.1,12.2-27.3,27.2-27.4h-1.5
	c-15.1,0-27.3,12.3-27.3,27.4l0.2,375.4c0,15.1,12.2,27.3,27.3,27.4L177.2,579.2L177.2,579.2z"/>
<path id="Shape_13_" class="st2" d="M329.9,149.1c7.2,0,14.2,2.9,19.3,8c5.1,5.1,8,12.1,8,19.3l0.2,375.3
	c0,15.1-12.2,27.3-27.3,27.4h1.5c15.1,0,27.3-12.3,27.3-27.4l-0.2-375.3c0-7.2-2.9-14.2-8-19.3s-12.1-8-19.3-8
	C331.4,149.1,329.9,149.1,329.9,149.1z"/>
<linearGradient id="Shape_23_" gradientUnits="userSpaceOnUse" x1="262.1475" y1="141.5065" x2="262.1475" y2="140.5065" gradientTransform="matrix(1.84 0 0 27.86 -121.6514 -3636.8701)">
	<stop  offset="0" style="stop-color:#3B333A"/>
	<stop  offset="4.000000e-02" style="stop-color:#655A62"/>
	<stop  offset="9.000000e-02" style="stop-color:#80767E"/>
	<stop  offset="0.52" style="stop-color:#80767E"/>
	<stop  offset="0.9" style="stop-color:#80767E"/>
	<stop  offset="0.95" style="stop-color:#655A62"/>
	<stop  offset="1" style="stop-color:#3B333A"/>
</linearGradient>
<path id="Shape_14_" class="st8" d="M361,277.6h-1.2v27.9h1.2c0.3,0,0.6-0.3,0.6-0.6v-26.6C361.6,277.9,361.3,277.6,361,277.6z"/>
<linearGradient id="Shape_24_" gradientUnits="userSpaceOnUse" x1="262.1359" y1="418.2569" x2="262.1359" y2="390.3969" gradientTransform="matrix(1.84 0 0 27.86 -336.13 -3689.6304)">
	<stop  offset="0" style="stop-color:#3B333A"/>
	<stop  offset="4.000000e-02" style="stop-color:#655A62"/>
	<stop  offset="9.000000e-02" style="stop-color:#80767E"/>
	<stop  offset="0.52" style="stop-color:#80767E"/>
	<stop  offset="0.9" style="stop-color:#80767E"/>
	<stop  offset="0.95" style="stop-color:#655A62"/>
	<stop  offset="1" style="stop-color:#3B333A"/>
</linearGradient>
<path id="Shape_15_" class="st9" d="M145.9,224.9h1.2v27.9h-1.2c-0.3,0-0.6-0.3-0.6-0.6v-26.7c0-0.2,0.1-0.3,0.2-0.4
	C145.6,225,145.8,224.9,145.9,224.9z"/>
<linearGradient id="Shape_25_" gradientUnits="userSpaceOnUse" x1="262.1359" y1="527.105" x2="262.1359" y2="472.175" gradientTransform="matrix(1.84 0 0 54.93 -336.13 -8555.041)">
	<stop  offset="0" style="stop-color:#3B333A"/>
	<stop  offset="4.000000e-02" style="stop-color:#655A62"/>
	<stop  offset="9.000000e-02" style="stop-color:#80767E"/>
	<stop  offset="0.52" style="stop-color:#80767E"/>
	<stop  offset="0.9" style="stop-color:#80767E"/>
	<stop  offset="0.95" style="stop-color:#655A62"/>
	<stop  offset="1" style="stop-color:#3B333A"/>
</linearGradient>
<path id="Shape_16_" class="st10" d="M145.9,286.2h1.2v54.9h-1.2c-0.3,0-0.6-0.3-0.6-0.6v-53.7C145.3,286.5,145.6,286.2,145.9,286.2
	z"/>
<path id="Shape_17_" class="st4" d="M220.6,165c0,0.1,0,0.3,0,0.4c-0.2,1.1-1.2,1.9-2.3,1.9h-9.5c-1.1,0-2.1-0.8-2.3-1.9
	c0-0.1,0-0.3,0-0.4c0-0.6,0.2-1.2,0.7-1.7s1-0.7,1.7-0.7h9.5C219.6,162.7,220.6,163.7,220.6,165z"/>
<path id="Shape_18_" class="st3" d="M220.5,165.4c-0.2,1.1-1.2,1.9-2.3,1.9h-9.5c-1.1,0-2.1-0.8-2.3-1.9c0.1-0.5,0.3-0.9,0.7-1.2
	c0.4-0.4,1-0.7,1.7-0.7h9.5C219.4,163.5,220.3,164.3,220.5,165.4z"/>
<path id="Shape_19_" class="st11" d="M277.5,555.3c0,0.8-0.1,1.5-0.2,2.2c-1.1,6-6.3,10.4-12.5,10.4H242c-6.1,0-11.4-4.4-12.4-10.4
	c-0.1-0.7-0.2-1.5-0.2-2.2c0-3.4,1.3-6.6,3.7-9s5.6-3.7,9-3.7H265C271.8,542.6,277.5,548.3,277.5,555.3z"/>
<path id="Shape_20_" class="st2" d="M277.5,555.3c0,0.8-0.1,1.5-0.2,2.2c-1.1,6-6.3,10.4-12.5,10.4H242c-6.1,0-11.4-4.4-12.4-10.4
	c-0.1-0.7-0.2-1.5-0.2-2.2c0-3.4,1.3-6.6,3.7-9s5.6-3.7,9-3.7H265C271.8,542.6,277.5,548.3,277.5,555.3z"/>
<path id="Shape_21_" class="st4" d="M277.3,556.6c-0.4,2.7-1.7,5.2-3.5,7.3c-2.3,2.5-5.6,4-9,4H242c-6.2,0-11.4-4.9-12.4-11.3
	c0.4-2.7,1.6-5.2,3.5-7.3c2.3-2.5,5.6-4,9-4h22.8C271.1,545.3,276.2,550.2,277.3,556.6z"/>
<path id="Shape_22_" class="st12" d="M277.3,556.6c-0.4,2.7-1.7,5.2-3.5,7.3c-2.3,2.5-5.6,4-9,4H242c-6.2,0-11.4-4.9-12.4-11.3
	c0-0.2,0.1-0.4,0.1-0.7c1.3,6.1,6.3,10.6,12.3,10.6h22.9c3.4,0,6.7-1.5,9-4c1.7-1.8,2.9-4.1,3.4-6.6
	C277.2,556.2,277.2,556.4,277.3,556.6z"/>
<circle id="Oval_2_" class="st0" cx="47.9" cy="172.9" r="47"/>
<path id="Shape_42_" class="st13" d="M47.9,133.1h-2.4l-1.1,0.1H43l0.2,1.5c1.5-0.2,3.1-0.3,4.7-0.3V133.1z M35.5,135.1
	c-1.2,0.4-2.4,0.8-3.5,1.3l0,0h-0.2h-0.1l-0.7,0.3l0.6,1.3c1.4-0.7,2.9-1.2,4.3-1.7l-0.5-1.4v0.2L35.5,135.1L35.5,135.1z
	 M24.4,140.9L24.4,140.9h-0.1l-0.4,0.4l-0.3,0.2h-0.1h-0.1H22l1,1.1c1.1-1.1,2.3-2.1,3.6-3l-0.9-1.2L24.4,140.9z M15.5,149.9
	l-0.5,0.8v0.1v0.1h-0.1h-0.1v0.1v0.1c-0.2,0.3-0.4,0.6-0.6,0.9h-0.1c-0.1,0.2-0.2,0.4-0.3,0.6l1.3,0.7c0.7-1.4,1.6-2.7,2.5-4
	l-1.2-0.9L15.5,149.9z M10,161.1L10,161.1c-0.4,1.4-0.7,2.8-1,4.2l1.4,0.3c0.3-1.5,0.6-3.1,1.1-4.5l-1.4-0.4L10,161.1z M9.7,173.5
	H8.2v0.4v0.1v0.1v0.1c0.1,1.2,0.2,2.4,0.3,3.6l1.4-0.2c-0.2-1.5-0.3-3.1-0.4-4.7L9.7,173.5z M11.8,185.4l-1.4,0.5
	c0.5,1.5,1.2,3,1.9,4.5l1.3-0.6C12.9,188.3,12.3,186.9,11.8,185.4z M17.5,196.1l-1.2,0.9c0.6,0.8,1.2,1.5,1.8,2.2h0.2v0.1
	c0.3,0.3,0.6,0.6,0.9,0.9l1-1c-1.1-1.1-2.1-2.3-3.1-3.5L17.5,196.1z M26.3,204.4l-0.8,1.2c0.6,0.4,1.2,0.8,1.9,1.2l0,0h0.4l0.1,0.1
	l0.2,0.1h0.1c0.1,0,0.2,0.1,0.2,0.1h0.1h0.3l0.2,0.1l0.7-1.3c-1.4-0.7-2.7-1.5-4-2.4L26.3,204.4z M37.3,209.6l-0.4,1.4l1.5,0.4h0.1
	l0,0h2l1.1,0.2l0.2-1.4c-1.5-0.2-3.1-0.6-4.6-1L37.3,209.6z M54,210.7c-1.5,0.2-3.1,0.4-4.7,0.4v1.5c0.6,0,1.2-0.1,1.8-0.1H52
	c0.7-0.1,1.4-0.2,2-0.3l0,0V210.7L54,210.7z M65.5,206.9c-1.4,0.7-2.8,1.3-4.3,1.9l0.5,1.4c1.2-0.4,2.3-0.9,3.4-1.4h0.1h0.2h0.1h0.1
	l0.6-0.3l-0.7-1.3L65.5,206.9z M75.2,199.8c-1.1,1.1-2.3,2.2-3.5,3.1l0.9,1.1H73h0.1h0.1h0.4l0,0h0.1c0.4-0.4,0.8-0.8,1.2-1.1v-0.1
	h1l-1-1L75.2,199.8z M82.3,189.9c-0.7,1.4-1.5,2.7-2.3,4.1l1.2,0.8c0.6-0.9,1.2-1.9,1.7-2.9l0.1-0.1v-0.1v-0.1v-0.1v-0.1l0,0v-0.1
	l0.2-0.3l-1.3-0.6L82.3,189.9z M85.9,178.4c-0.2,1.5-0.6,3.1-1,4.6l1.4,0.4c0.1-0.4,0.2-0.9,0.3-1.3V182v-0.1
	c0.2-0.9,0.3-1.7,0.5-2.6l-1.4-0.2L85.9,178.4z M87.1,166l-1.4,0.2c0.3,1.5,0.4,3.1,0.5,4.6l1.4-0.1c0-0.8-0.1-1.5-0.2-2.3v-0.1
	v-0.1v-0.1V168v-0.1v-0.1c0-0.1,0-0.3-0.1-0.4L87.1,166z M83,154.1l-1.3,0.7c0.7,1.4,1.4,2.8,1.9,4.2l1.4-0.5l-0.1-0.2v-0.1
	l-0.1-0.1c-0.2-0.5-0.5-1-0.7-1.6H84l0,0c-0.2-0.3-0.3-0.6-0.5-0.9L83,154.1z M75.4,144.1l-1,1.1c1.1,1.1,2.2,2.2,3.2,3.4l1.1-0.9
	c-1-1.2-2-2.3-3.1-3.4L75.4,144.1z M65,137l-0.6,1.3c1.4,0.7,2.8,1.4,4.1,2.3l0.8-1.2c-0.1-0.1-0.2-0.1-0.3-0.2h-0.2
	c-0.8-0.5-1.5-0.9-2.3-1.3h-0.1H66L65,137z M53,133.4l-0.2,1.4c1.5,0.2,3.1,0.5,4.6,0.9l0.4-1.4c-0.9-0.2-1.8-0.4-2.7-0.6H55h-1.3
	h-0.1l-0.6-0.1L53,133.4z"/>
<path id="Rectangle-path_4_" class="st14" d="M63.6,150.9v43.9c0,3.5-2.8,6.3-6.3,6.3H38.5c-3.5,0-6.3-2.8-6.3-6.3v-43.9
	c0-3.5,2.8-6.3,6.3-6.3h18.8C60.8,144.6,63.6,147.4,63.6,150.9z"/>
<path id="Rectangle-path_5_" class="st15" d="M35.4,150.9h25.1c0.9,0,1.6,0.7,1.6,1.6v37.7c0,0.9-0.7,1.6-1.6,1.6H35.4
	c-0.9,0-1.6-0.7-1.6-1.6v-37.7C33.8,151.6,34.5,150.9,35.4,150.9z"/>
<circle id="Oval_3_" class="st0" cx="47.9" cy="147.7" r="1.6"/>
<path id="Shape_43_" class="st0" d="M49.5,198h-3.1c-0.9,0-1.6-0.7-1.6-1.6c0-0.9,0.7-1.6,1.6-1.6h3.1c0.9,0,1.6,0.7,1.6,1.6
	S50.4,198,49.5,198z"/>
<circle id="Oval_4_" class="st0" cx="457.7" cy="354.6" r="47"/>
<path id="Shape_44_" class="st13" d="M457.7,314.8h-2.4l-1.1,0.1H454h-1.2l0.2,1.4c1.5-0.2,3.1-0.3,4.7-0.3v-1.5V314.8z
	 M445.3,316.8c-1.2,0.4-2.4,0.8-3.5,1.3h-0.2h-0.1l-0.7,0.3l0.6,1.3c1.4-0.7,2.9-1.2,4.3-1.7l-0.4-1.4L445.3,316.8z M434.1,322.6
	L434.1,322.6l-0.5,0.3l-0.3,0.3l-0.1,0.1l0,0h-0.1h-0.6h-0.1l1,1.1c1.1-1.1,2.3-2.1,3.6-3l-0.9-1.2L434.1,322.6z M425.3,331.6
	l-0.5,0.8v0.1h-0.1v0.1l0,0c-0.2,0.3-0.4,0.6-0.6,0.9l0,0v0.1l0,0H424v0.1c-0.1,0.2-0.2,0.4-0.3,0.6l1.3,0.7c0.7-1.4,1.6-2.7,2.5-4
	l-1.2-0.9L425.3,331.6z M419.7,342.9L419.7,342.9L419.7,342.9c-0.5,1.4-0.8,2.8-1.1,4.2l1.4,0.3c0.3-1.5,0.6-3,1.1-4.5l-1.4-0.4
	V342.9z M419.4,355.3H418c0,0.1,0,0.2,0,0.4v0.1l0,0l0,0v0.1c0.1,1.2,0.2,2.4,0.3,3.6l1.4-0.2c-0.2-1.5-0.3-3.1-0.4-4.7L419.4,355.3
	z M421.5,367.2l-1.4,0.5c0.5,1.5,1.1,3,1.9,4.4l1.3-0.6C422.6,370.1,422,368.6,421.5,367.2L421.5,367.2z M427.3,377.9l-1.2,0.9
	c0.6,0.8,1.2,1.5,1.8,2.2l0,0h0.1h0.1v0.1c0.3,0.3,0.6,0.6,0.9,0.9l1-1c-1.1-1.1-2.1-2.3-3.1-3.5L427.3,377.9z M436,386.2l-0.8,1.2
	c0.6,0.4,1.2,0.8,1.9,1.2h0.1h0.4l0.1,0.1l0.2,0.1h0.1l0.2,0.1l0,0h0.8l0.2,0.1l0.7-1.3c-1.4-0.7-2.7-1.5-4-2.4L436,386.2z
	 M447,391.3l-0.4,1.4c0.5,0.1,1,0.3,1.5,0.4h0.1h2.1l1.1,0.2l0.2-1.4c-1.5-0.2-3.1-0.6-4.6-1L447,391.3z M463.7,392.4
	c-1.5,0.2-3.1,0.4-4.7,0.4v1.5c0.6,0,1.2-0.1,1.8-0.1h0.9c0.7-0.1,1.4-0.1,2-0.3l-0.2-1.4L463.7,392.4z M475.2,388.6
	c-1.4,0.7-2.8,1.3-4.3,1.9l0.5,1.4c1.1-0.4,2.3-0.9,3.4-1.4h0.1h0.3l0.6-0.3l-0.7-1.3L475.2,388.6z M485,381.5
	c-1.1,1.1-2.3,2.1-3.5,3.1l0.9,1.1h0.1h0.3h0.2h0.1c0.4-0.4,0.8-0.8,1.2-1.1l0,0h0.3l-1-1L485,381.5z M492,371.6
	c-0.7,1.4-1.5,2.7-2.3,4l1.2,0.8l0,0c0.6-0.9,1.2-1.9,1.7-2.9l0.1-0.1v-0.1l0,0v-0.1l0,0v-0.1l0,0l0,0l0.2-0.3l-1.3-0.6L492,371.6z
	 M495.6,360.1c-0.2,1.5-0.5,3.1-0.9,4.6l1.4,0.4c0.1-0.4,0.2-0.9,0.3-1.3v-0.1l0,0c0.2-0.9,0.3-1.7,0.5-2.6l-1.5-0.2L495.6,360.1z
	 M496.8,347.7l-1.4,0.2c0.3,1.5,0.4,3.1,0.5,4.6l1.4-0.1c0-0.8-0.1-1.5-0.2-2.3V350v-0.1v0.1l0,0v-0.1c0-0.1,0-0.3-0.1-0.5
	L496.8,347.7z M492.7,335.8l-1.3,0.7c0.7,1.4,1.4,2.8,2,4.2l1.4-0.5l-0.1-0.2l0,0l0,0l-0.1-0.1c-0.2-0.5-0.4-1.1-0.7-1.6l0,0v-0.1
	c-0.2-0.3-0.3-0.6-0.5-0.9L492.7,335.8z M485.1,325.8l-1,1.1c1.1,1.1,2.2,2.2,3.2,3.4l1.1-0.9c-1-1.2-2-2.3-3.2-3.4L485.1,325.8z
	 M474.8,318.7l-0.6,1.3c1.4,0.7,2.8,1.4,4.1,2.3l0.8-1.2l-0.4-0.2h-0.1c-0.8-0.5-1.5-0.9-2.3-1.3H476l0,0l-0.9-0.4L474.8,318.7z
	 M462.7,315.1l-0.2,1.4c1.5,0.2,3.1,0.5,4.6,0.9l0.4-1.4c-0.9-0.2-1.8-0.4-2.7-0.6h-1.4l-0.6-0.1L462.7,315.1L462.7,315.1z"/>
<circle id="Oval_5_" class="st16" cx="457.7" cy="354.5" r="25"/>
<circle id="Oval_6_" class="st17" cx="457.7" cy="354.5" r="21"/>
<path id="Shape_45_" class="st16" d="M457.7,333.5c-1.8,0-3.6,0.2-5.3,0.7c-2.4,0.6-4.6,1.6-6.7,3c-2.9,2-5.2,4.7-6.8,7.9
	c-3.3,6.5-3,14.3,0.8,20.5s10.6,10,17.9,10c2.5,0,5.1-0.5,7.4-1.4c3.3-1.2,6.2-3.3,8.5-6c1.6-1.9,2.9-4,3.7-6.3
	c0.9-2.4,1.4-4.9,1.4-7.4C478.7,342.9,469.3,333.5,457.7,333.5z M472,366.4c-2.2,2.7-5.2,4.8-8.6,5.8c-1.8,0.6-3.7,0.9-5.7,0.9
	c-10.3,0-18.6-8.3-18.6-18.6c0-2.6,0.5-5.1,1.6-7.5c1.4-3.3,3.7-6,6.7-8c2.1-1.4,4.4-2.3,6.9-2.8c1.1-0.2,2.3-0.3,3.4-0.3
	c10.2,0,18.6,8.3,18.6,18.6c0,1.8-0.3,3.6-0.8,5.3C474.8,362.3,473.6,364.5,472,366.4z"/>
<path id="Shape_46_" class="st17" d="M457.7,333.5c-1.8,0-3.6,0.2-5.3,0.7c-2.4,0.6-4.6,1.6-6.7,3c-2.9,2-5.2,4.7-6.8,7.9
	c-3.3,6.5-3,14.3,0.8,20.5s10.6,10,17.9,10c2.5,0,5.1-0.5,7.4-1.4c3.3-1.2,6.2-3.3,8.5-6c1.6-1.9,2.9-4,3.7-6.3
	c0.9-2.4,1.4-4.9,1.4-7.4C478.7,342.9,469.3,333.5,457.7,333.5z"/>
<circle id="Oval_7_" class="st18" cx="457.7" cy="354.5" r="19.2"/>
<path id="Shape_47_" class="st19" d="M453.8,345c0.3,0.1,0.5,0.2,0.8,0.2c0.7,0.1,1.5,0,2.1-0.4c0.2-0.2,0.8-0.8,0.8-0.8h0.4
	c0,0,0.6,0.6,0.8,0.8c0.6,0.4,1.4,0.5,2.1,0.4c0.3,0,0.6-0.1,0.8-0.2c0.6-0.4,1.1-1,1.3-1.7c0.2-0.6,0.1-1.3-0.1-1.8
	c-0.4-0.9-1.2-1.5-2.1-1.8c0.3-0.3,0.4-0.7,0.2-1c-0.2-0.4-0.6-0.5-1.1-0.5c-0.4,0-0.7,0.1-1.1,0.3v-0.6c0-0.3-0.1-0.6-0.4-0.9
	l-0.7-0.7h-0.1l-0.7,0.7c-0.2,0.2-0.4,0.5-0.4,0.9v0.6c-0.3-0.2-0.7-0.3-1.1-0.3c0,0-0.8-0.1-1.1,0.5c-0.1,0.3-0.1,0.7,0.2,1
	c-0.9,0.2-1.7,0.9-2.1,1.8c-0.2,0.6-0.3,1.2-0.1,1.8C452.7,344,453.1,344.6,453.8,345z"/>
<path id="Shape_48_" class="st19" d="M462.5,345.4c0.1,0.3,0.2,0.5,0.3,0.8c0.4,0.6,0.9,1.1,1.6,1.4c0.3,0.1,1.1,0.1,1.1,0.1
	l0.3,0.3c0,0-0.1,0.9-0.1,1.1c0.1,0.7,0.4,1.4,1,1.9c0.2,0.2,0.4,0.4,0.7,0.5c0.7,0.3,1.4,0.3,2.1,0c0.6-0.3,1.1-0.7,1.4-1.2
	c0.4-0.8,0.5-1.8,0.1-2.7c0.4,0.1,0.8-0.1,0.9-0.5s0-0.9-0.3-1.1c0,0-0.6-0.6-0.9-0.6l0.5-0.4c0.3-0.2,0.4-0.5,0.5-0.8l0.1-1
	l-0.1-0.1l-1-0.1c-0.3,0-0.6,0.1-0.9,0.3l-0.5,0.4c-0.1-0.4-0.2-0.7-0.4-1c-0.2-0.4-0.6-0.6-1.1-0.5c-0.4,0.1-0.6,0.4-0.7,0.8
	c-0.8-0.6-1.7-0.7-2.6-0.5c-0.6,0.2-1.1,0.6-1.5,1.1C462.6,344,462.4,344.7,462.5,345.4z"/>
<path id="Shape_49_" class="st19" d="M474.9,357.2c-0.2-0.3-0.5-0.5-0.8-0.5l-0.6-0.1c0.2-0.3,0.4-0.6,0.5-1s0-0.8-0.3-1.1
	c-0.3-0.2-0.7-0.2-1,0c-0.1-0.9-0.5-1.8-1.3-2.4c-0.5-0.4-1.1-0.5-1.8-0.5c-0.7,0-1.4,0.4-1.9,0.9c-0.2,0.2-0.3,0.5-0.4,0.7
	c-0.3,0.7-0.3,1.5,0,2.1c0.1,0.2,0.6,1,0.6,1s-0.1,0.3-0.1,0.4s-0.7,0.4-1,0.6c-0.5,0.5-0.8,1.3-0.9,2c0,0.3,0,0.6,0.1,0.8
	c0.2,0.7,0.7,1.3,1.4,1.6c0.6,0.3,1.2,0.4,1.8,0.3c0.9-0.2,1.7-0.8,2.1-1.6c0.2,0.4,0.6,0.5,1,0.4c0.6-0.2,0.7-0.9,0.7-0.9
	c0.1-0.4,0-0.7-0.1-1.1l0.6,0.1c0.3,0.1,0.7,0,0.9-0.2l0.8-0.5v-0.1L474.9,357.2z"/>
<path id="Shape_50_" class="st19" d="M468,363.4c0-0.6-0.3-1.2-0.7-1.7c-0.5-0.6-1.2-0.9-1.9-0.9c-0.3,0-0.6,0-0.8,0.1
	c-0.7,0.2-1.3,0.7-1.7,1.3c-0.1,0.3-0.4,1.1-0.4,1.1l-0.4,0.2c0,0-0.8-0.3-1.1-0.4c-0.7-0.1-1.5,0.1-2.1,0.6
	c-0.2,0.2-0.4,0.3-0.6,0.6c-0.4,0.6-0.6,1.4-0.4,2.1c0.1,0.6,0.4,1.2,0.9,1.6c0.7,0.6,1.7,0.8,2.6,0.7c-0.1,0.4,0,0.8,0.3,1
	c0.4,0.2,0.8,0.2,1.2,0c0,0,0.7-0.4,0.8-0.7l0.3,0.5c0.1,0.3,0.4,0.5,0.7,0.6l0.9,0.3l0.1-0.1l0.3-0.9c0.1-0.3,0.1-0.6-0.1-0.9
	l-0.3-0.6c0.4,0,0.7-0.1,1.1-0.2c0,0,0.7-0.3,0.7-0.9c0-0.4-0.3-0.7-0.7-0.8C467.6,365.3,468,364.4,468,363.4z"/>
<path id="Shape_51_" class="st19" d="M443.8,345.9c-0.3,0.3-0.4,0.7-0.3,1.1c0.2,0.3,0.6,0.5,0.9,0.5c-0.4,0.9-0.3,1.9,0.1,2.7
	c0.3,0.6,0.8,1,1.4,1.2c0.7,0.3,1.4,0.3,2.1,0c0.3-0.1,0.5-0.3,0.7-0.5c0.6-0.5,0.9-1.2,1-1.9c0-0.3-0.1-1.1-0.1-1.1l0.3-0.3
	c0,0,0.9-0.1,1.1-0.1c0.7-0.2,1.3-0.7,1.6-1.4c0.1-0.2,0.3-0.5,0.3-0.8c0.1-0.7-0.1-1.5-0.5-2.1c-0.4-0.5-0.9-0.9-1.5-1.1
	c-0.9-0.2-1.9,0-2.6,0.5c0-0.4-0.3-0.7-0.7-0.8c-0.4,0-0.8,0.2-1.1,0.5c-0.2,0.3-0.4,0.6-0.4,1l-0.5-0.4c-0.3-0.2-0.6-0.3-0.9-0.3
	l-1,0.1l-0.1,0.1l0.1,1c0,0.3,0.2,0.6,0.5,0.8l0.5,0.4C444.3,345.3,443.8,345.9,443.8,345.9z"/>
<path id="Shape_52_" class="st19" d="M449.3,360.1c0.1-0.3,0.1-0.6,0.1-0.8c0-0.7-0.3-1.5-0.8-2c-0.2-0.2-1-0.6-1-0.6l-0.1-0.4
	c0,0,0.5-0.7,0.6-1c0.3-0.7,0.3-1.5,0-2.1c-0.1-0.3-0.2-0.5-0.4-0.7c-0.5-0.6-1.2-0.9-1.9-0.9c-0.6,0-1.3,0.2-1.8,0.5
	c-0.8,0.6-1.2,1.4-1.3,2.4c-0.3-0.2-0.7-0.2-1,0c-0.3,0.3-0.4,0.7-0.3,1.1s0.3,0.7,0.5,1l-0.6,0.1c-0.3,0.1-0.6,0.3-0.8,0.5L440,358
	v0.1l0.8,0.5c0.3,0.2,0.6,0.2,0.9,0.2l0.6-0.1c-0.1,0.4-0.1,0.7-0.1,1.1c0,0,0.1,0.8,0.7,0.9c0.4,0.1,0.8-0.1,1-0.4
	c0.4,0.8,1.2,1.4,2.1,1.6c0.6,0.1,1.3,0,1.8-0.3C448.6,361.4,449.1,360.8,449.3,360.1z"/>
<path id="Shape_53_" class="st19" d="M456.5,363.7c-0.6-0.4-1.3-0.6-2.1-0.6c-0.3,0.1-1.1,0.4-1.1,0.4l-0.4-0.2c0,0-0.3-0.8-0.4-1.1
	c-0.4-0.6-1-1.1-1.7-1.3c-0.3-0.1-0.5-0.1-0.8-0.1c-0.7,0-1.4,0.4-1.9,0.9c-0.4,0.5-0.7,1.1-0.7,1.7c0,0.9,0.4,1.8,1.1,2.5
	c-0.4,0.1-0.6,0.4-0.6,0.8c0,0.6,0.7,0.9,0.7,0.9c0.3,0.1,0.7,0.2,1.1,0.2l-0.3,0.6c-0.1,0.3-0.2,0.6-0.1,0.9l0.3,0.9l0.1,0.1
	l0.9-0.3c0.3-0.1,0.6-0.3,0.7-0.6l0.3-0.5c0.1,0.3,0.8,0.7,0.8,0.7c0.4,0.2,0.8,0.2,1.2,0c0.3-0.2,0.4-0.6,0.3-1
	c0.9,0.2,1.9-0.1,2.6-0.7c0.5-0.4,0.8-1,0.9-1.6c0.2-0.7,0-1.5-0.4-2.1C456.9,364,456.7,363.8,456.5,363.7z"/>
<path id="Shape_54_" class="st19" d="M467.4,354.2c0-3.9-2.3-7.4-6-8.9c-3.6-1.5-7.8-0.7-10.5,2.1c-2.8,2.8-3.6,6.9-2.1,10.5
	s5,6,8.9,6C463,363.9,467.3,359.6,467.4,354.2z"/>
<path id="Shape_55_" class="st16" d="M465.8,354.2c0-4.5-3.6-8.1-8.1-8.1s-8.1,3.6-8.1,8.1s3.6,8.1,8.1,8.1S465.8,358.7,465.8,354.2
	z"/>
<path id="Shape_56_" class="st20" d="M457.7,341.9c0.5-0.1,1,0.3,1.1,0.7c0.2,0.9,1.1,1.4,2,1.3c1.6-0.4,0.9-2.4,0.9-2.4
	c-0.4,0.6-1.1,0.8-1.7,0.5c-0.5-0.3-0.7-0.9-0.6-1.5c-0.4,0.3-1,0.3-1.5,0h-0.4c-0.5,0.3-1,0.3-1.5,0c0.2,0.6-0.1,1.2-0.6,1.5
	c-0.6,0.3-1.4,0.1-1.7-0.5c0,0-0.7,2,0.9,2.4c0.9,0.2,1.8-0.4,2-1.3C456.7,342.2,457.1,341.9,457.7,341.9"/>
<path id="Shape_57_" class="st20" d="M467.3,346.5c0.4,0.3,0.4,0.9,0.1,1.3c-0.6,0.7-0.4,1.8,0.3,2.4c1.3,1,2.4-0.8,2.4-0.8
	c0-1.4-0.6-2.7-1.6-3.6l-0.2-0.3c-0.1-0.6-0.4-1-1-1.2c-0.5-0.2-1.1,0-1.5,0.5c-0.6-0.3-0.9-1-0.7-1.6c0,0-2,0.7-1.3,2.1
	c0.4,0.8,1.4,1.2,2.3,0.8C466.5,346,467.1,346.1,467.3,346.5"/>
<path id="Shape_58_" class="st20" d="M469.9,356.9c-0.1,0.5-0.5,0.9-1,0.9c-0.9,0-1.7,0.8-1.7,1.7c0,1.7,2.1,1.3,2.1,1.3
	c-0.5-0.5-0.5-1.3-0.1-1.8c0.4-0.4,1-0.5,1.6-0.2c-0.2-0.5-0.1-1.1,0.3-1.5l0.1-0.4c-0.2-0.5-0.1-1.1,0.3-1.5c-0.6,0-1.2-0.4-1.3-1
	s0.2-1.2,0.8-1.4c0,0-1.8-1.1-2.5,0.4c-0.4,0.9,0,1.9,0.8,2.3C469.8,356,470,356.5,469.9,356.9"/>
<path id="Shape_59_" class="st20" d="M463.2,365.2c-0.4,0.3-1,0.2-1.3-0.2c-0.6-0.7-1.7-0.8-2.4-0.2c-1.3,1,0.3,2.5,0.3,2.5
	c0-0.6,0.6-1.1,1.2-1.2s1.2,0.4,1.3,1.1c0.3-0.5,0.8-0.7,1.3-0.7l0.3-0.2c0.3-0.5,0.8-0.7,1.3-0.7c-0.4-0.4-0.5-1.1-0.1-1.6
	c0.4-0.6,1.2-0.7,1.8-0.3c0,0-0.2-2.1-1.8-1.7c-0.9,0.2-1.5,1.1-1.3,2C463.9,364.6,463.6,365,463.2,365.2"/>
<path id="Shape_60_" class="st20" d="M448.1,346.5c-0.4,0.3-0.4,0.9-0.1,1.3c0.6,0.7,0.4,1.8-0.3,2.4c-1.3,1-2.4-0.8-2.4-0.8
	c0.7,0.1,1.3-0.4,1.5-1.1c-0.5-0.2-0.8-0.7-0.8-1.3c0-0.6,0.4-1,0.9-1.2l0.2-0.3c0.1-0.6,0.4-1,1-1.2c0.5-0.2,1.1,0,1.5,0.5
	c0.6-0.3,1-1,0.7-1.6c0,0,2,0.7,1.3,2.1c-0.4,0.8-1.4,1.2-2.3,0.8C448.9,346,448.3,346.1,448.1,346.5"/>
<path id="Shape_61_" class="st20" d="M445.5,356.9c0,0.5,0.4,0.9,0.9,0.9c0.9,0,1.7,0.8,1.7,1.7c0,1.7-2.1,1.3-2.1,1.3
	c0.5-0.5,0.6-1.3,0.1-1.8c-0.4-0.4-1-0.5-1.6-0.2c0.2-0.5,0.1-1.1-0.3-1.5l-0.1-0.4c0.2-0.5,0.1-1.1-0.3-1.5c0.6,0,1.2-0.4,1.3-1
	c0.1-0.6-0.2-1.2-0.8-1.4c0,0,1.8-1.1,2.5,0.4c0.4,0.8,0,1.9-0.8,2.3C445.6,356,445.4,356.5,445.5,356.9"/>
<path id="Shape_62_" class="st20" d="M452.2,365.2c0.4,0.3,1,0.2,1.3-0.2c0.6-0.7,1.7-0.8,2.4-0.2c1.3,1-0.3,2.5-0.3,2.5
	c-0.1-0.7-0.7-1.2-1.4-1.2c-0.6,0.1-1.1,0.5-1.1,1.1c-0.3-0.5-0.8-0.7-1.3-0.7l-0.3-0.2c-0.6,0.1-1.1-0.2-1.4-0.7s-0.2-1.1,0.2-1.5
	c-0.4-0.6-1.2-0.7-1.8-0.3c0,0,0.2-2.1,1.8-1.7c0.9,0.2,1.5,1.1,1.3,2C451.5,364.6,451.8,365,452.2,365.2"/>
<path id="Shape_63_" class="st18" d="M464.8,354.2c0-3.9-3.2-7.1-7.1-7.1s-7.1,3.2-7.1,7.1s3.2,7.1,7.1,7.1
	C461.6,361.4,464.8,358.2,464.8,354.2z"/>
<circle id="Oval_8_" class="st0" cx="457.7" cy="172.9" r="47"/>
<path id="Shape_64_" class="st13" d="M457.7,133.1h-2.4l-1.1,0.1h-1.4l0.2,1.5c1.5-0.2,3.1-0.3,4.7-0.3L457.7,133.1L457.7,133.1z
	 M445.3,135.1c-1.2,0.4-2.4,0.8-3.5,1.3h-0.2h-0.1l-0.7,0.3l0.6,1.3c1.4-0.7,2.9-1.2,4.3-1.7l-0.5-1.4L445.3,135.1z M434.1,140.9
	L434.1,140.9l-0.5,0.4l-0.3,0.2h-0.1l0,0h-0.1h-0.6l0,0l1,1.1c1.1-1.1,2.3-2.1,3.6-3l-0.9-1.2L434.1,140.9z M425.3,149.9l-0.5,0.8
	v0.1v0.1h-0.1h-0.1v0.1v0.1c-0.2,0.3-0.4,0.6-0.6,0.9l0,0l-0.3,0.6l1.3,0.7c0.7-1.4,1.6-2.7,2.5-4l-1.2-0.9L425.3,149.9z
	 M419.7,161.1L419.7,161.1c-0.4,1.4-0.7,2.8-1,4.2l1.4,0.3c0.3-1.5,0.6-3.1,1.1-4.5l-1.4-0.4L419.7,161.1z M419.4,173.6H418
	c0,0.1,0,0.2,0,0.4v0.1v0.1v0.1c0.1,1.2,0.2,2.4,0.3,3.6l1.4-0.2c-0.2-1.5-0.3-3.1-0.4-4.7L419.4,173.6z M421.5,185.5l-1.4,0.5
	c0.5,1.5,1.2,3,1.9,4.5l1.3-0.7C422.6,188.4,422,187,421.5,185.5z M427.3,196.2l-1.2,0.9c0.6,0.8,1.2,1.5,1.8,2.2h0.2v0.1
	c0.3,0.3,0.6,0.6,0.9,0.9l1-1c-1.1-1.1-2.1-2.3-3.1-3.5L427.3,196.2z M436,204.5l-0.8,1.2c0.6,0.4,1.2,0.8,1.9,1.2h0.1h0.4l0.1,0.1
	l0.2,0.1h0.1c0.1,0,0.2,0.1,0.2,0.1l0,0h0.3l0.2,0.1l0.7-1.3c-1.4-0.7-2.7-1.5-4-2.4L436,204.5z M447,209.6l-0.4,1.4l1.5,0.4h0.1
	h0.1h2l1.1,0.2l0.2-1.4c-1.5-0.2-3.1-0.6-4.6-1L447,209.6z M463.7,210.7c-1.5,0.2-3.1,0.4-4.7,0.4v1.5c0.6,0,1.2-0.1,1.8-0.1h0.9
	c0.7-0.1,1.4-0.2,2-0.3l-0.2-1.4L463.7,210.7z M475.2,206.9c-1.4,0.7-2.8,1.3-4.3,1.9l0.5,1.4c1.1-0.4,2.3-0.9,3.4-1.4h0.1h0.2
	l0.6-0.3l-0.7-1.3L475.2,206.9z M485,199.8c-1.1,1.1-2.3,2.2-3.5,3.1l0.9,1.1h0.1h0.5h0.1h0.4l0,0l1.2-1.1v-0.1h0.2l-1-1L485,199.8z
	 M492,189.9c-0.7,1.4-1.5,2.7-2.3,4.1l1.2,0.8c0.6-0.9,1.2-1.9,1.7-2.9l0.1-0.1v-0.1v-0.1v-0.1v-0.1l0,0v-0.1l0.2-0.3l-1.3-0.6
	L492,189.9z M495.6,178.4c-0.2,1.5-0.5,3.1-0.9,4.6l1.4,0.4c0.1-0.4,0.2-0.9,0.3-1.3V182v-0.1c0.2-0.9,0.3-1.7,0.5-2.6l-1.5-0.2
	L495.6,178.4z M496.9,166l-1.4,0.2c0.3,1.5,0.4,3.1,0.5,4.6l1.4-0.1c0-0.8-0.1-1.5-0.2-2.3v-0.1v-0.1v-0.1V168v-0.1v-0.1
	c0-0.1,0-0.3-0.1-0.4L496.9,166z M492.8,154.1l-1.3,0.7c0.7,1.4,1.4,2.8,1.9,4.2l1.4-0.5l-0.1-0.2v-0.1l-0.1-0.1
	c-0.2-0.5-0.5-1-0.7-1.6h-0.1v-0.1c-0.2-0.3-0.3-0.6-0.5-0.9L492.8,154.1z M485.1,144.1l-1,1.1c1.1,1.1,2.2,2.2,3.2,3.4l1.1-0.9
	c-1-1.2-2-2.3-3.1-3.4L485.1,144.1z M474.8,137l-0.6,1.3c1.4,0.7,2.8,1.4,4.1,2.3l0.8-1.2l-0.4-0.2h-0.1c-0.8-0.5-1.5-0.9-2.3-1.3
	H476l0,0l-0.9-0.4L474.8,137z M462.7,133.5l-0.2,1.4c1.5,0.2,3.1,0.5,4.6,0.9l0.4-1.4c-0.9-0.2-1.8-0.4-2.7-0.6h-0.1h-1.3h-0.1
	l-0.6-0.1L462.7,133.5L462.7,133.5z"/>
<path id="Rectangle-path_6_" class="st21" d="M453.6,150.8h8.3c1.2,0,2.1,0.9,2.1,2.1v5.8c0,1.2-0.9,2.1-2.1,2.1h-8.3
	c-1.2,0-2.1-0.9-2.1-2.1v-5.8C451.5,151.7,452.4,150.8,453.6,150.8z"/>
<path id="Rectangle-path_7_" class="st22" d="M439.5,157.1h36.4c3.1,0,5.7,2.5,5.7,5.7v20.5c0,3.1-2.5,5.7-5.7,5.7h-36.4
	c-3.1,0-5.7-2.5-5.7-5.7v-20.5C433.8,159.6,436.4,157.1,439.5,157.1z"/>
<path id="Shape_65_" class="st14" d="M475.9,158.2c2.5,0,4.5,2,4.5,4.5v20.5c0,2.5-2,4.5-4.5,4.5h-36.4c-2.5,0-4.5-2-4.5-4.5v-20.5
	c0-2.5,2-4.5,4.5-4.5H475.9z M475.9,155.9h-36.4c-1.8,0-3.5,0.7-4.8,2s-2,3-2,4.8v20.5c0,1.8,0.7,3.5,2,4.8s3,2,4.8,2h36.4
	c3.8,0,6.8-3.1,6.8-6.8v-20.5c0-1.8-0.7-3.5-2-4.8C479.4,156.6,477.7,155.9,475.9,155.9z"/>
<rect id="Rectangle-path_8_" x="442.9" y="157.1" class="st14" width="4.5" height="31.8"/>
<path id="Shape_66_" class="st14" d="M446.3,158.2v29.5H444v-29.5H446.3z M448.6,155.9h-6.8V190h6.8V155.9z"/>
<rect id="Rectangle-path_9_" x="467.9" y="157.1" class="st14" width="4.5" height="31.8"/>
<path id="Shape_67_" class="st14" d="M471.3,158.2v29.5H469v-29.5H471.3z M473.6,155.9h-6.8V190h6.8V155.9z"/>
<circle id="Oval_9_" class="st0" cx="47.9" cy="354.6" r="47"/>
<path id="Shape_68_" class="st13" d="M47.9,314.8h-2.4l-1.1,0.1h-0.2H43l0.2,1.4c1.5-0.2,3.1-0.3,4.7-0.3v-1.5V314.8z M35.5,316.8
	c-1.2,0.4-2.4,0.8-3.5,1.3l0,0h-0.2h-0.1l-0.7,0.3l0.6,1.3c1.4-0.7,2.9-1.2,4.3-1.7l-0.5-1.4L35.5,316.8z M24.4,322.6L24.4,322.6
	h-0.1l-0.4,0.3l-0.3,0.3l-0.1,0.1h-0.1H22h-0.1l1,1.1c1.1-1.1,2.3-2.1,3.6-3l-0.9-1.2L24.4,322.6z M15.5,331.6l-0.5,0.8v0.1h-0.1
	v0.1l0,0c-0.2,0.3-0.4,0.6-0.6,0.9l0,0v0.1l0,0h-0.1v0.1c-0.1,0.2-0.2,0.4-0.3,0.6l1.3,0.7c0.7-1.4,1.6-2.7,2.5-4l-1.2-0.9
	L15.5,331.6z M10,342.8L10,342.8L10,342.8c-0.5,1.4-0.8,2.8-1.1,4.2l1.4,0.3c0.3-1.5,0.6-3.1,1.1-4.5H10z M9.7,355.2H8.2v0.4v0.1
	v0.1l0,0v0.1c0.1,1.2,0.2,2.4,0.3,3.6l1.4-0.2c-0.2-1.5-0.3-3.1-0.4-4.7L9.7,355.2z M11.8,367.1l-1.4,0.5c0.5,1.5,1.2,3,1.9,4.5
	l1.3-0.6C12.9,370.1,12.3,368.6,11.8,367.1z M17.5,377.8l-1.2,0.9c0.6,0.8,1.2,1.5,1.8,2.2h0.1h0.1h0.1l0.1,0.1
	c0.3,0.3,0.6,0.6,0.9,0.9l1-1c-1.1-1.1-2.1-2.3-3.1-3.5L17.5,377.8z M26.3,386.1l-0.8,1.2c0.6,0.4,1.2,0.8,1.9,1.2l0,0h0.4l0.1,0.1
	l0.2,0.1h0.1l0.2,0.1h0.1h0.2L29,389l0.7-1.3c-1.4-0.7-2.7-1.5-4-2.4L26.3,386.1z M37.3,391.3l-0.4,1.4c0.5,0.1,1,0.3,1.5,0.4h0.1
	h2.1l1.1,0.2l0.2-1.4c-1.5-0.2-3.1-0.6-4.6-1L37.3,391.3z M54,392.4c-1.5,0.2-3.1,0.4-4.7,0.4v1.5c0.6,0,1.2-0.1,1.8-0.1H52
	c0.7-0.1,1.4-0.1,2-0.3l0,0V392.4L54,392.4z M65.5,388.6c-1.4,0.7-2.8,1.3-4.3,1.9l0.5,1.4c1.2-0.4,2.3-0.9,3.4-1.4h0.1h0.3l0,0h0.1
	l0.6-0.3l-0.7-1.3V388.6z M75.2,381.5c-1.1,1.1-2.3,2.1-3.5,3.1l0.9,1.1h0.1H73h0.2l0,0h0.1c0.4-0.4,0.8-0.8,1.2-1.1h0.1h0.3l-1-1
	L75.2,381.5z M82.3,371.6c-0.7,1.4-1.5,2.7-2.3,4l1.2,0.8l0,0c0.6-0.9,1.2-1.9,1.7-2.9l0.1-0.1v-0.1l0,0v-0.1l0,0v-0.1l0,0l0,0
	l0.2-0.3l-1.3-0.6L82.3,371.6z M85.9,360.1c-0.2,1.5-0.6,3.1-1,4.6l1.4,0.4c0.1-0.4,0.2-0.9,0.3-1.3v-0.1l0,0
	c0.2-0.9,0.3-1.7,0.5-2.6l-1.4-0.2L85.9,360.1z M87.1,347.7l-1.4,0.2c0.3,1.5,0.4,3.1,0.5,4.6l1.4-0.1c0-0.8-0.1-1.5-0.2-2.3V350
	v-0.1v0.1l0,0v-0.1c0-0.1,0-0.3-0.1-0.5L87.1,347.7z M83,335.8l-1.3,0.7c0.7,1.4,1.4,2.8,1.9,4.2l1.4-0.5l-0.1-0.2h-0.1l0,0
	l-0.1-0.1c-0.2-0.5-0.4-1.1-0.7-1.6l0,0l0,0v-0.1c-0.2-0.3-0.3-0.6-0.5-0.9L83,335.8z M75.4,325.8l-1,1.1c1.1,1.1,2.2,2.2,3.2,3.4
	l1.1-0.9c-1-1.2-2-2.3-3.1-3.4L75.4,325.8z M65,318.7l-0.6,1.3c1.4,0.7,2.8,1.4,4.1,2.3l0.8-1.2l-0.3-0.2h-0.2
	c-0.8-0.5-1.5-0.9-2.3-1.3l0,0H66l-0.8-0.4L65,318.7z M53,315.1l-0.2,1.4c1.5,0.2,3.1,0.5,4.6,0.9l0.4-1.4c-0.9-0.2-1.8-0.4-2.7-0.6
	h-1.4l-0.6-0.1L53,315.1L53,315.1z"/>
<path id="Shape_69_" class="st23" d="M65.1,344v-8.8c0.1-2.3,2-4,4.2-4s4.1,1.8,4.2,4v8.8H65.1z"/>
<path id="Shape_70_" class="st23" d="M65.1,335.2c0-1.1,0.4-2.2,1.2-3c0.8-0.8,1.9-1.2,3-1.2H33c-5.2,0-9.4,4.2-9.4,9.4V379l5.2-2.6
	L34,379l5.2-2.6l5.2,2.6l5.2-2.6l5.2,2.6l5.2-2.6l5.2,2.6L65.1,335.2z"/>
<path id="Shape_71_" class="st0" d="M52.8,345.4h-4.1c0.8,1,1.3,2.2,1.4,3.5h3.5l-0.8,2.7h-2.7c-0.1,1.8-1,3.6-2.5,4.7
	c-1.8,1.1-3.9,1.7-6,1.6l8.6,10v0.2h-4l-9.3-10.8v-2.2h4.3c1.3,0,2.5-0.3,3.6-1c0.9-0.6,1.5-1.5,1.7-2.5h-9.9l0.8-2.7h9.3
	c-0.5-2.2-2.3-3.4-5.1-3.5h-4.9l0.8-2.7h16.2L52.8,345.4z"/>
<circle id="Oval_10_" class="st0" cx="249.5" cy="47.3" r="47"/>
<path id="Shape_72_" class="st13" d="M249.5,7.5h-2.4L246,7.6h-1.4l0.2,1.4c1.5-0.2,3.1-0.3,4.7-0.3V7.5z M237,9.5
	c-1.2,0.4-2.3,0.8-3.5,1.3h-0.1h-0.2l0,0l-0.7,0.3l0.6,1.3c1.4-0.7,2.9-1.2,4.3-1.7L237,9.5L237,9.5z M225.9,15.3L225.9,15.3
	l-0.5,0.4L225,16l0,0h-0.1h-0.1l0,0h-0.1h-0.2h-0.3h-0.1H224l1,1.1c1.1-1.1,2.3-2.1,3.6-3l-0.9-1.2L225.9,15.3z M217.1,24.3
	c-0.2,0.3-0.4,0.5-0.6,0.8l0,0h-0.1h-0.1v0.1v0.1c-0.2,0.3-0.4,0.6-0.6,0.9l0,0H215c-0.1,0.2-0.2,0.4-0.3,0.6l1.3,0.7
	c0.7-1.4,1.6-2.7,2.5-4l-1.2-0.9L217.1,24.3z M211.5,35.6c-0.4,1.4-0.7,2.8-1,4.2l1.4,0.2c0.3-1.5,0.6-3.1,1.1-4.5l-1.4-0.4
	L211.5,35.6z M211.2,48h-1.5c0,0.1,0,0.2,0,0.4v0.1v0.1c0,1.2,0.2,2.4,0.3,3.6l1.4-0.2c-0.2-1.5-0.3-3.1-0.4-4.7L211.2,48z
	 M213.3,59.9l-1.4,0.5c0.5,1.5,1.2,3,1.9,4.5l1.3-0.7C214.4,62.8,213.8,61.4,213.3,59.9z M219,70.5l-1.1,0.9
	c0.6,0.8,1.2,1.5,1.8,2.2h0.1h0.2h0.1c0.3,0.3,0.6,0.6,0.9,0.9l1-1C220.8,72.6,219.9,71.6,219,70.5z M227.8,78.9l-0.8,1.2
	c0.6,0.4,1.2,0.8,1.8,1.2h0.1h0.4h0.1l0.1,0.1l0.2,0.1h0.1l0.2,0.1l0,0h0.1h0.1h0.3l0.2,0.1l0.7-1.3c-1.4-0.7-2.7-1.5-4-2.4
	L227.8,78.9z M238.7,84.1l-0.4,1.4l1.5,0.4h0.1h0.1h2l1.1,0.2l0.2-1.4c-1.5-0.2-3.1-0.6-4.6-1L238.7,84.1z M255.4,85.1
	c-1.5,0.2-3.1,0.4-4.7,0.4l0.1,1.5c0.6,0,1.2-0.1,1.8-0.1h0.9c0.7-0.1,1.4-0.2,2-0.3L255.4,85.1L255.4,85.1z M266.9,81.4
	c-1.4,0.7-2.8,1.3-4.3,1.9l0.5,1.4c1.1-0.4,2.3-0.9,3.4-1.4l0,0h0.2l0,0h0.1l0.6-0.3l-0.7-1.3L266.9,81.4z M276.7,74.2
	c-1.1,1.1-2.3,2.2-3.5,3.1l0.9,1.1h0.1h0.1h0.5l0,0c0.4-0.4,0.8-0.8,1.2-1.1v-0.1h0.3l-1-1L276.7,74.2z M283.7,64.3
	c-0.7,1.4-1.5,2.7-2.3,4.1l1.2,0.8c0.6-0.9,1.2-1.9,1.7-2.9l0.1-0.1v-0.1l0,0l0.2-0.3l-1.3-0.7L283.7,64.3z M287.3,52.8
	c-0.2,1.5-0.5,3.1-0.9,4.6l1.4,0.4l0.3-1.3v-0.1c0.2-0.9,0.4-1.7,0.5-2.6l-1.4-0.2L287.3,52.8z M288.6,40.4l-1.4,0.2
	c0.3,1.5,0.4,3.1,0.5,4.6l1.5-0.1c0-0.8-0.1-1.5-0.1-2.2v-0.1v-0.2V41v-0.1c0-0.2,0-0.3-0.1-0.5H288.6z M284.5,28.5l-1.3,0.7
	c0.7,1.4,1.4,2.8,2,4.2l1.4-0.5l-0.1-0.2l0,0v-0.1c-0.2-0.5-0.5-1.1-0.7-1.6h-0.1l0,0l0,0c-0.2-0.3-0.3-0.6-0.5-0.9L284.5,28.5z
	 M276.9,18.5l-1,1c1.1,1.1,2.2,2.2,3.2,3.4l1.1-0.9c-1-1.2-2-2.3-3.1-3.4L276.9,18.5z M266.5,11.4l-0.6,1.3c1.4,0.7,2.8,1.4,4.1,2.3
	l0.8-1.2c-0.1-0.1-0.2-0.2-0.4-0.2h-0.1l0,0c-0.8-0.5-1.5-0.9-2.3-1.3h-0.1h-0.2h-0.1l-0.8-0.4L266.5,11.4z M254.5,7.8l-0.2,1.5
	c1.5,0.2,3.1,0.5,4.6,0.9l0.4-1.4c-0.9-0.2-1.8-0.4-2.7-0.6h-0.1h-1.4l-0.6-0.1L254.5,7.8L254.5,7.8z"/>
<polygon id="Shape_73_" class="st15" points="270.7,51.1 238.9,55.7 234.6,34.4 275.3,34.4 "/>
<path id="Shape_74_" class="st24" d="M226.4,27.9h6.3"/>
<path id="Shape_75_" class="st24" d="M232.8,27.9l5.7,26.9"/>
<path id="Shape_76_" class="st24" d="M275.3,34.4h-41.2"/>
<path id="Shape_77_" class="st24" d="M275.3,34.4l-4.6,16.7"/>
<polyline id="Shape_78_" class="st24" points="270.7,51.1 269,51.3 238.9,55.7 "/>
<path id="Shape_79_" class="st24" d="M269,59.9h-24.2c-4.6-0.4-5.5-2.7-6.4-5.1"/>
<circle id="Oval_11_" class="st15" cx="245.5" cy="70" r="4.4"/>
<circle id="Oval_12_" class="st24" cx="245.5" cy="70" r="4.4"/>
<circle id="Oval_13_" class="st15" cx="264.7" cy="70" r="4.4"/>
<circle id="Oval_14_" class="st24" cx="264.7" cy="70" r="4.4"/>
<g>
	<path d="M198.7,428.3h-1.1v-8.5h1.1V428.3z"/>
	<path d="M201.6,422l0,0.8c0.2-0.3,0.5-0.5,0.8-0.7s0.7-0.2,1.1-0.2c0.3,0,0.6,0,0.8,0.1s0.5,0.2,0.6,0.4s0.3,0.4,0.4,0.7
		s0.1,0.6,0.1,1.1v4.2h-1.1v-4.2c0-0.2,0-0.5-0.1-0.6s-0.1-0.3-0.2-0.4s-0.2-0.2-0.4-0.2s-0.3-0.1-0.5-0.1c-0.4,0-0.7,0.1-0.9,0.3
		s-0.5,0.4-0.6,0.7v4.5h-1.1V422L201.6,422L201.6,422z"/>
	<path d="M206.9,425.1c0-0.5,0.1-0.9,0.2-1.3c0.1-0.4,0.3-0.7,0.5-1s0.5-0.5,0.8-0.7s0.6-0.2,1-0.2c0.4,0,0.7,0.1,1,0.2
		s0.5,0.3,0.8,0.6v-3.3h1.1v9h-1l-0.1-0.7c-0.2,0.3-0.5,0.5-0.8,0.6s-0.6,0.2-1,0.2c-0.4,0-0.7-0.1-1-0.2s-0.6-0.4-0.8-0.7
		s-0.4-0.6-0.5-1c-0.1-0.4-0.2-0.8-0.2-1.3L206.9,425.1L206.9,425.1z M208,425.2c0,0.3,0,0.6,0.1,0.9s0.2,0.5,0.3,0.7
		s0.3,0.4,0.5,0.5s0.5,0.2,0.8,0.2c0.2,0,0.4,0,0.5-0.1s0.3-0.1,0.4-0.2s0.2-0.2,0.3-0.3s0.2-0.2,0.2-0.4v-2.9
		c-0.1-0.1-0.2-0.2-0.2-0.4s-0.2-0.2-0.3-0.3s-0.3-0.1-0.4-0.2s-0.3-0.1-0.5-0.1c-0.3,0-0.6,0.1-0.8,0.2s-0.4,0.3-0.5,0.5
		s-0.2,0.5-0.3,0.7s-0.1,0.6-0.1,0.9V425.2z"/>
	<path d="M213.9,420.3c0-0.2,0.1-0.3,0.2-0.4s0.3-0.2,0.5-0.2s0.4,0.1,0.5,0.2s0.2,0.3,0.2,0.4s-0.1,0.3-0.2,0.4s-0.3,0.2-0.5,0.2
		s-0.4-0.1-0.5-0.2S213.9,420.5,213.9,420.3z M215.1,428.3H214V422h1.1V428.3z"/>
	<path d="M220.8,428.3c0-0.1-0.1-0.2-0.1-0.3s0-0.2-0.1-0.4c-0.1,0.1-0.2,0.2-0.3,0.3s-0.3,0.2-0.4,0.3s-0.3,0.1-0.5,0.2
		s-0.4,0.1-0.6,0.1c-0.3,0-0.6,0-0.9-0.1s-0.5-0.2-0.7-0.4s-0.3-0.4-0.4-0.6s-0.2-0.5-0.2-0.7c0-0.3,0.1-0.6,0.2-0.9
		s0.3-0.5,0.6-0.7s0.5-0.3,0.9-0.4s0.7-0.1,1.2-0.1h1.1V424c0-0.4-0.1-0.7-0.3-0.9s-0.6-0.3-1-0.3c-0.2,0-0.4,0-0.6,0.1
		s-0.3,0.1-0.4,0.2s-0.2,0.2-0.3,0.3s-0.1,0.2-0.1,0.4h-1.1c0-0.2,0.1-0.5,0.2-0.7s0.3-0.4,0.5-0.6s0.5-0.3,0.8-0.4s0.7-0.2,1-0.2
		c0.3,0,0.7,0,1,0.1s0.5,0.2,0.7,0.4s0.4,0.4,0.5,0.7s0.2,0.6,0.2,0.9v2.9c0,0.2,0,0.4,0.1,0.7s0.1,0.4,0.2,0.6v0.1L220.8,428.3
		L220.8,428.3z M219,427.5c0.2,0,0.4,0,0.6-0.1s0.3-0.1,0.5-0.2s0.3-0.2,0.4-0.3s0.2-0.2,0.2-0.4v-1.3h-0.9c-0.6,0-1.1,0.1-1.4,0.3
		s-0.5,0.5-0.5,0.9c0,0.2,0,0.3,0.1,0.4s0.1,0.2,0.2,0.3s0.2,0.2,0.4,0.2S218.8,427.5,219,427.5z"/>
	<path d="M223.6,420l-0.1,2.2h-0.8l0-2.1v-0.7h0.9V420z"/>
	<path d="M228.3,426.7c0-0.1,0-0.2-0.1-0.3s-0.1-0.2-0.2-0.3s-0.3-0.2-0.4-0.3s-0.4-0.1-0.8-0.2c-0.4-0.1-0.7-0.2-0.9-0.3
		s-0.5-0.2-0.7-0.4s-0.3-0.3-0.5-0.5s-0.2-0.4-0.2-0.7c0-0.2,0.1-0.5,0.2-0.7s0.3-0.4,0.5-0.6s0.4-0.3,0.7-0.4s0.6-0.1,1-0.1
		c0.4,0,0.7,0.1,1,0.2s0.6,0.2,0.8,0.4s0.4,0.4,0.5,0.6s0.2,0.5,0.2,0.8h-1.1c0-0.1,0-0.3-0.1-0.4s-0.1-0.2-0.3-0.4
		s-0.3-0.2-0.4-0.3s-0.4-0.1-0.6-0.1c-0.2,0-0.4,0-0.6,0.1s-0.3,0.1-0.4,0.2s-0.2,0.2-0.2,0.3s-0.1,0.2-0.1,0.3s0,0.2,0.1,0.3
		s0.1,0.2,0.2,0.3s0.3,0.1,0.4,0.2s0.4,0.1,0.7,0.2c0.4,0.1,0.7,0.2,1,0.3s0.5,0.2,0.7,0.4s0.3,0.3,0.4,0.5s0.1,0.4,0.1,0.7
		c0,0.3-0.1,0.5-0.2,0.8s-0.3,0.4-0.5,0.6s-0.5,0.3-0.8,0.4s-0.6,0.1-1,0.1c-0.4,0-0.8-0.1-1.1-0.2s-0.6-0.3-0.8-0.5
		s-0.4-0.4-0.5-0.7s-0.2-0.5-0.2-0.8h1.1c0,0.2,0.1,0.4,0.2,0.6s0.2,0.3,0.4,0.4s0.3,0.2,0.5,0.2s0.3,0.1,0.5,0.1
		c0.2,0,0.4,0,0.6-0.1s0.3-0.1,0.4-0.2s0.2-0.2,0.3-0.3S228.3,426.8,228.3,426.7z"/>
	<path d="M235.1,425v3.3h-1.1v-8.5h3.1c0.5,0,0.9,0.1,1.3,0.2s0.7,0.3,0.9,0.5s0.4,0.5,0.6,0.8s0.2,0.7,0.2,1c0,0.4-0.1,0.8-0.2,1.1
		s-0.3,0.6-0.6,0.8s-0.6,0.4-0.9,0.5s-0.8,0.2-1.3,0.2L235.1,425L235.1,425z M235.1,424.1h2c0.3,0,0.6,0,0.8-0.1s0.4-0.2,0.6-0.3
		s0.3-0.3,0.3-0.5s0.1-0.4,0.1-0.7c0-0.2,0-0.4-0.1-0.6s-0.2-0.4-0.3-0.5s-0.3-0.3-0.6-0.4s-0.5-0.1-0.8-0.1h-2V424.1z"/>
	<path d="M245.2,428.3c0-0.1-0.1-0.2-0.1-0.3s0-0.2-0.1-0.4c-0.1,0.1-0.2,0.2-0.3,0.3s-0.3,0.2-0.4,0.3s-0.3,0.1-0.5,0.2
		s-0.4,0.1-0.6,0.1c-0.3,0-0.6,0-0.9-0.1s-0.5-0.2-0.7-0.4s-0.3-0.4-0.4-0.6s-0.2-0.5-0.2-0.7c0-0.3,0.1-0.6,0.2-0.9
		s0.3-0.5,0.6-0.7s0.5-0.3,0.9-0.4s0.7-0.1,1.2-0.1h1.1V424c0-0.4-0.1-0.7-0.3-0.9s-0.6-0.3-1-0.3c-0.2,0-0.4,0-0.6,0.1
		s-0.3,0.1-0.4,0.2s-0.2,0.2-0.3,0.3s-0.1,0.2-0.1,0.4h-1.1c0-0.2,0.1-0.5,0.2-0.7s0.3-0.4,0.5-0.6s0.5-0.3,0.8-0.4s0.7-0.2,1-0.2
		c0.3,0,0.7,0,1,0.1s0.5,0.2,0.7,0.4s0.4,0.4,0.5,0.7s0.2,0.6,0.2,0.9v2.9c0,0.2,0,0.4,0.1,0.7s0.1,0.4,0.2,0.6v0.1L245.2,428.3
		L245.2,428.3z M243.4,427.5c0.2,0,0.4,0,0.6-0.1s0.3-0.1,0.5-0.2s0.3-0.2,0.4-0.3s0.2-0.2,0.2-0.4v-1.3h-0.9
		c-0.6,0-1.1,0.1-1.4,0.3s-0.5,0.5-0.5,0.9c0,0.2,0,0.3,0.1,0.4s0.1,0.2,0.2,0.3s0.2,0.2,0.4,0.2S243.2,427.5,243.4,427.5z"/>
	<path d="M249.8,426.7l1.5-4.8h1.2l-2.5,7.3c-0.1,0.2-0.1,0.3-0.2,0.5s-0.2,0.4-0.4,0.5s-0.3,0.3-0.5,0.4s-0.5,0.2-0.7,0.2
		c0,0-0.1,0-0.2,0s-0.1,0-0.2,0s-0.1,0-0.2,0s-0.1,0-0.1,0v-0.9c0,0,0,0,0.1,0s0.1,0,0.1,0s0.1,0,0.1,0s0,0,0.1,0
		c0.2,0,0.3,0,0.5-0.1s0.3-0.1,0.4-0.2s0.2-0.2,0.3-0.3s0.2-0.3,0.2-0.5l0.2-0.6L247,422h1.2L249.8,426.7z"/>
	<path d="M254.4,422l0,0.7c0.2-0.3,0.5-0.5,0.8-0.6s0.7-0.2,1.1-0.2c0.4,0,0.8,0.1,1.1,0.2s0.6,0.4,0.7,0.8c0.2-0.3,0.5-0.6,0.8-0.7
		s0.7-0.3,1.2-0.3c0.3,0,0.6,0,0.9,0.1s0.5,0.2,0.7,0.4s0.3,0.4,0.4,0.7s0.1,0.6,0.1,1v4.2h-1.1v-4.2c0-0.3,0-0.5-0.1-0.7
		s-0.2-0.3-0.3-0.4s-0.3-0.2-0.4-0.2s-0.4-0.1-0.6-0.1c-0.2,0-0.4,0-0.6,0.1s-0.3,0.2-0.4,0.3s-0.2,0.3-0.3,0.4s-0.1,0.3-0.1,0.5
		v4.2h-1.1v-4.2c0-0.2,0-0.5-0.1-0.6s-0.2-0.3-0.3-0.4s-0.3-0.2-0.4-0.2s-0.4-0.1-0.6-0.1c-0.4,0-0.7,0.1-0.9,0.3s-0.4,0.4-0.5,0.7
		v4.6h-1.1V422L254.4,422L254.4,422z"/>
	<path d="M266.5,428.5c-0.4,0-0.8-0.1-1.2-0.2s-0.7-0.4-0.9-0.6s-0.4-0.6-0.6-1s-0.2-0.8-0.2-1.2v-0.2c0-0.5,0.1-1,0.2-1.4
		s0.4-0.7,0.6-1s0.6-0.5,0.9-0.6s0.7-0.2,1-0.2c0.5,0,0.8,0.1,1.2,0.2s0.6,0.4,0.8,0.7s0.4,0.6,0.5,1s0.2,0.8,0.2,1.2v0.5h-4.3
		c0,0.3,0.1,0.6,0.1,0.8s0.2,0.5,0.4,0.7s0.4,0.3,0.6,0.4s0.5,0.2,0.8,0.2c0.4,0,0.7-0.1,1-0.2s0.5-0.4,0.7-0.6l0.7,0.5
		c-0.1,0.2-0.2,0.3-0.4,0.5s-0.3,0.3-0.5,0.4s-0.4,0.2-0.7,0.3S266.9,428.5,266.5,428.5z M266.4,422.8c-0.2,0-0.4,0-0.6,0.1
		s-0.3,0.2-0.5,0.3s-0.3,0.3-0.4,0.6s-0.2,0.5-0.2,0.8h3.2v-0.1c0-0.2,0-0.4-0.1-0.6s-0.1-0.4-0.3-0.6s-0.3-0.3-0.5-0.4
		S266.7,422.8,266.4,422.8z"/>
	<path d="M271.3,422l0,0.8c0.2-0.3,0.5-0.5,0.8-0.7s0.7-0.2,1.1-0.2c0.3,0,0.6,0,0.8,0.1s0.5,0.2,0.6,0.4s0.3,0.4,0.4,0.7
		s0.1,0.6,0.1,1.1v4.2h-1.1v-4.2c0-0.2,0-0.5-0.1-0.6s-0.1-0.3-0.2-0.4s-0.2-0.2-0.4-0.2s-0.3-0.1-0.5-0.1c-0.4,0-0.7,0.1-0.9,0.3
		s-0.5,0.4-0.6,0.7v4.5h-1.1V422L271.3,422L271.3,422z"/>
	<path d="M278.4,420.5v1.5h1.2v0.8h-1.2v3.9c0,0.2,0,0.3,0.1,0.4s0.1,0.2,0.2,0.2s0.1,0.1,0.2,0.1s0.2,0,0.3,0s0.2,0,0.3,0
		s0.2,0,0.2,0v0.9c-0.1,0-0.2,0-0.3,0.1s-0.3,0-0.5,0c-0.2,0-0.4,0-0.6-0.1s-0.3-0.2-0.5-0.3s-0.2-0.3-0.3-0.5s-0.1-0.5-0.1-0.8
		v-3.9h-1.2V422h1.2v-1.5H278.4z"/>
	<path d="M284.5,426.7c0-0.1,0-0.2-0.1-0.3s-0.1-0.2-0.2-0.3s-0.3-0.2-0.4-0.3s-0.4-0.1-0.8-0.2c-0.4-0.1-0.7-0.2-0.9-0.3
		s-0.5-0.2-0.7-0.4s-0.3-0.3-0.5-0.5s-0.2-0.4-0.2-0.7c0-0.2,0.1-0.5,0.2-0.7s0.3-0.4,0.5-0.6s0.4-0.3,0.7-0.4s0.6-0.1,1-0.1
		c0.4,0,0.7,0.1,1,0.2s0.6,0.2,0.8,0.4s0.4,0.4,0.5,0.6s0.2,0.5,0.2,0.8h-1.1c0-0.1,0-0.3-0.1-0.4s-0.1-0.2-0.3-0.4
		s-0.3-0.2-0.4-0.3s-0.4-0.1-0.6-0.1c-0.2,0-0.4,0-0.6,0.1s-0.3,0.1-0.4,0.2s-0.2,0.2-0.2,0.3s-0.1,0.2-0.1,0.3s0,0.2,0.1,0.3
		s0.1,0.2,0.2,0.3s0.3,0.1,0.4,0.2s0.4,0.1,0.7,0.2c0.4,0.1,0.7,0.2,1,0.3s0.5,0.2,0.7,0.4s0.3,0.3,0.4,0.5s0.1,0.4,0.1,0.7
		c0,0.3-0.1,0.5-0.2,0.8s-0.3,0.4-0.5,0.6s-0.5,0.3-0.8,0.4s-0.6,0.1-1,0.1c-0.4,0-0.8-0.1-1.1-0.2s-0.6-0.3-0.8-0.5
		s-0.4-0.4-0.5-0.7s-0.2-0.5-0.2-0.8h1.1c0,0.2,0.1,0.4,0.2,0.6s0.2,0.3,0.4,0.4s0.3,0.2,0.5,0.2s0.3,0.1,0.5,0.1
		c0.2,0,0.4,0,0.6-0.1s0.3-0.1,0.4-0.2s0.2-0.2,0.3-0.3S284.5,426.8,284.5,426.7z"/>
	<path d="M294.8,426.1h-3.6l-0.8,2.2h-1.2l3.3-8.5h1l3.3,8.5h-1.2L294.8,426.1z M291.6,425.2h2.9l-1.5-4L291.6,425.2z"/>
	<path d="M303.1,425.2c0,0.5-0.1,0.9-0.2,1.3s-0.3,0.7-0.5,1s-0.5,0.5-0.8,0.7s-0.7,0.2-1,0.2c-0.4,0-0.7-0.1-1-0.2
		s-0.6-0.3-0.8-0.5v3.1h-1.1V422h1l0.1,0.7c0.2-0.3,0.5-0.5,0.8-0.6s0.7-0.2,1.1-0.2c0.4,0,0.8,0.1,1.1,0.2s0.6,0.4,0.8,0.7
		s0.4,0.6,0.5,1s0.2,0.8,0.2,1.3L303.1,425.2L303.1,425.2z M302.1,425.1c0-0.3,0-0.6-0.1-0.9s-0.2-0.5-0.3-0.7s-0.3-0.4-0.5-0.5
		s-0.5-0.2-0.8-0.2c-0.2,0-0.4,0-0.5,0.1s-0.3,0.1-0.4,0.2s-0.2,0.2-0.3,0.3s-0.2,0.2-0.2,0.3v3c0.1,0.1,0.2,0.2,0.2,0.3
		s0.2,0.2,0.3,0.3s0.3,0.1,0.4,0.2s0.3,0.1,0.5,0.1c0.3,0,0.5-0.1,0.8-0.2s0.4-0.3,0.5-0.5s0.2-0.5,0.3-0.7s0.1-0.6,0.1-0.9V425.1z"
		/>
	<path d="M309.9,425.2c0,0.5-0.1,0.9-0.2,1.3s-0.3,0.7-0.5,1s-0.5,0.5-0.8,0.7s-0.7,0.2-1,0.2c-0.4,0-0.7-0.1-1-0.2
		s-0.6-0.3-0.8-0.5v3.1h-1.1V422h1l0.1,0.7c0.2-0.3,0.5-0.5,0.8-0.6s0.7-0.2,1.1-0.2c0.4,0,0.8,0.1,1.1,0.2s0.6,0.4,0.8,0.7
		s0.4,0.6,0.5,1s0.2,0.8,0.2,1.3L309.9,425.2L309.9,425.2z M308.8,425.1c0-0.3,0-0.6-0.1-0.9s-0.2-0.5-0.3-0.7s-0.3-0.4-0.5-0.5
		s-0.5-0.2-0.8-0.2c-0.2,0-0.4,0-0.5,0.1s-0.3,0.1-0.4,0.2s-0.2,0.2-0.3,0.3s-0.2,0.2-0.2,0.3v3c0.1,0.1,0.2,0.2,0.2,0.3
		s0.2,0.2,0.3,0.3s0.3,0.1,0.4,0.2s0.3,0.1,0.5,0.1c0.3,0,0.5-0.1,0.8-0.2s0.4-0.3,0.5-0.5s0.2-0.5,0.3-0.7s0.1-0.6,0.1-0.9V425.1z"
		/>
</g>
<g>
	<ellipse transform="matrix(0.2298 -0.9732 0.9732 0.2298 -141.2835 511.4807)" class="st25" cx="252.5" cy="345" rx="51" ry="51"/>
	<path class="st0" d="M275.6,331.6c0-2-1.6-3.6-3.6-3.6h-6.8L249.5,310c-1.5-1.7-3.8-2.3-5.9-1.7l-5.4,1.6c-0.8,0.2-1.1,1.3-0.5,1.9
		l17.1,16.3h-26.1c-0.8,0-1.4,0.6-1.4,1.4v2.9c0,2,1.6,3.6,3.6,3.6h4v13.8c0,10.3,5.5,16.4,14.6,16.4c2.8,0,5.2-0.3,7.9-1.4v9.2
		c0,2.5,2,4.5,4.5,4.5h4c0.9,0,1.7-0.8,1.7-1.7v-40.8h6.5c0.8,0,1.4-0.6,1.4-1.4V331.6z M257.5,356.1c-1.6,0.7-3.9,1.1-5.7,1.1
		c-4.7,0-6.8-2.3-6.8-7.6v-13.8h12.4V356.1z"/>
</g>
</svg>
