<svg id="Layer_1" enable-background="new 0 0 66 66" height="512" viewBox="0 0 66 66" width="512" xmlns="http://www.w3.org/2000/svg"><g><g><path d="m53.78 61.78h-41.56c-4.42 0-8-3.58-8-8v-41.56c0-4.42 3.58-8 8-8h41.55c4.42 0 8 3.58 8 8v41.55c.01 4.42-3.58 8.01-7.99 8.01z" fill="#dbeaf2"/><path d="m52.18 62.97h-38.36c-5.95 0-10.79-4.84-10.79-10.79v-38.36c0-5.95 4.84-10.79 10.79-10.79h38.37c5.95 0 10.79 4.84 10.79 10.79v38.37c-.01 5.94-4.85 10.78-10.8 10.78zm-38.36-57.55c-4.63 0-8.39 3.77-8.39 8.39v38.37c0 4.63 3.77 8.39 8.39 8.39h38.37c4.63 0 8.39-3.77 8.39-8.39v-38.36c0-4.63-3.77-8.39-8.39-8.39h-38.37z" fill="#616974"/></g><g><path d="m48.99 28.54h-32.12c-2.45 0-4.44-1.99-4.44-4.44v-6.51c0-2.45 1.99-4.44 4.44-4.44h32.13c2.45 0 4.44 1.99 4.44 4.44v6.51c-.01 2.45-2 4.44-4.45 4.44z" fill="#6ac89b"/><path d="m45.73 29.74h-25.61c-4.91 0-8.9-3.99-8.9-8.9s3.99-8.9 8.9-8.9h25.61c4.91 0 8.9 3.99 8.9 8.9s-3.99 8.9-8.9 8.9zm-25.61-15.4c-3.58 0-6.5 2.91-6.5 6.5s2.91 6.5 6.5 6.5h25.61c3.58 0 6.5-2.91 6.5-6.5s-2.91-6.5-6.5-6.5z" fill="#616974"/></g><g><path d="m48.99 55.04h-32.12c-2.45 0-4.44-1.99-4.44-4.44v-6.51c0-2.45 1.99-4.44 4.44-4.44h32.13c2.45 0 4.44 1.99 4.44 4.44v6.51c-.01 2.45-2 4.44-4.45 4.44z" fill="#f89b8c"/><path d="m45.73 56.24h-25.61c-4.91 0-8.9-3.99-8.9-8.9s3.99-8.9 8.9-8.9h25.61c4.91 0 8.9 3.99 8.9 8.9s-3.99 8.9-8.9 8.9zm-25.61-15.4c-3.58 0-6.5 2.92-6.5 6.5s2.91 6.5 6.5 6.5h25.61c3.58 0 6.5-2.91 6.5-6.5 0-3.58-2.91-6.5-6.5-6.5z" fill="#616974"/></g><g><circle cx="45.73" cy="20.84" fill="#fff" r="7.7"/><path d="m45.73 29.74c-4.91 0-8.9-3.99-8.9-8.9s3.99-8.9 8.9-8.9 8.9 3.99 8.9 8.9-3.99 8.9-8.9 8.9zm0-15.4c-3.58 0-6.5 2.91-6.5 6.5s2.92 6.5 6.5 6.5 6.5-2.91 6.5-6.5-2.91-6.5-6.5-6.5z" fill="#616974"/></g><g><circle cx="20.12" cy="47.34" fill="#fff" r="7.7"/><path d="m20.12 56.24c-4.91 0-8.9-3.99-8.9-8.9s3.99-8.9 8.9-8.9 8.9 3.99 8.9 8.9-3.99 8.9-8.9 8.9zm0-15.4c-3.58 0-6.5 2.92-6.5 6.5s2.91 6.5 6.5 6.5 6.5-2.91 6.5-6.5c0-3.58-2.91-6.5-6.5-6.5z" fill="#616974"/></g></g></svg>